<?xml version="1.0" standalone="no"?>
<!DOCTYPE svg PUBLIC "-//W3C//DTD SVG 20010904//EN"
 "http://www.w3.org/TR/2001/REC-SVG-20010904/DTD/svg10.dtd">
<svg version="1.0" xmlns="http://www.w3.org/2000/svg"
 width="700.000000pt" height="700.000000pt" viewBox="0 0 700.000000 700.000000"
 preserveAspectRatio="xMidYMid meet">
<metadata>
Created by potrace 1.11, written by Peter Selinger 2001-2013
</metadata>
<g transform="translate(0.000000,700.000000) scale(0.100000,-0.100000)"
fill="#000000" stroke="none">
<path d="M2618 6115 c-7 -5 -49 -51 -93 -100 -44 -50 -84 -95 -90 -101 -5 -6
-41 -46 -80 -89 -38 -43 -79 -88 -90 -99 -11 -12 -53 -58 -92 -102 l-73 -81
-477 -1 c-263 0 -503 -3 -533 -7 -187 -23 -360 -148 -444 -318 -66 -136 -63
-9 -61 -2028 2 -1819 2 -1835 23 -1896 62 -190 200 -328 387 -390 l80 -26
2425 0 2425 0 82 27 c91 30 179 84 244 151 50 51 114 152 130 204 36 118 35
109 34 1976 l-2 1830 -22 64 c-79 226 -256 376 -479 406 -29 4 -269 7 -533 7
l-479 1 -73 81 c-39 44 -83 93 -97 107 -14 14 -54 59 -90 99 -36 40 -69 78
-75 84 -25 27 -180 202 -183 206 -8 10 -1751 6 -1764 -5z m3213 -1168 c0 -7 2
-794 2 -1750 l2 -1737 -165 0 c-300 0 -1449 0 -1812 0 l-358 0 0 145 0 145
-52 1 c-54 1 -70 2 -148 12 -263 34 -536 153 -735 320 -88 74 -171 162 -234
247 -69 92 -79 109 -141 235 -107 218 -151 429 -145 690 6 222 53 410 151 610
232 473 712 781 1246 799 l58 2 0 -263 0 -263 45 -1 c25 -1 48 -2 53 -3 4 -1
34 -6 67 -10 73 -9 185 -46 264 -86 218 -110 388 -311 460 -545 75 -241 49
-523 -67 -735 -155 -283 -459 -474 -772 -484 l-45 -1 -3 934 -2 933 -73 -5
c-318 -24 -586 -192 -741 -465 -40 -71 -91 -209 -101 -277 -5 -27 -10 -57 -12
-65 -5 -24 -4 -211 1 -250 51 -342 269 -620 581 -741 95 -37 193 -57 298 -62
l47 -2 0 -264 0 -264 93 7 c133 9 202 21 332 58 76 22 100 31 219 86 436 202
747 642 804 1142 10 82 8 311 -3 375 -40 238 -106 416 -221 592 -163 253 -378
430 -674 556 -136 57 -336 98 -500 101 l-45 1 -3 147 -3 146 1166 1 c893 0
1165 -3 1166 -12z"/>
</g>
</svg>
